<svg width="560" height="560" viewBox="0 0 560 560" fill="none" xmlns="http://www.w3.org/2000/svg">
<path d="M280 560C434.64 560 560 434.64 560 280C560 125.36 434.64 0 280 0C125.36 0 0 125.36 0 280C0 434.64 125.36 560 280 560Z" fill="black"/>
<path d="M278.198 76.965C275.643 71.19 284.883 67.095 287.438 72.59C347.498 176.05 407.558 279.562 467.618 383.18C464.415 383.18 461.335 382.13 458.255 381.64L297.955 349.685C292.705 349.422 291.55 340.935 296.677 339.675L359.573 322.35C360.322 322.16 361.021 321.807 361.618 321.316C362.215 320.824 362.696 320.207 363.027 319.508C363.358 318.809 363.531 318.046 363.533 317.273C363.534 316.5 363.365 315.735 363.038 315.035L278.198 76.825V76.965Z" fill="white"/>
<path d="M268.975 77.49C269.552 78.33 270.06 79.24 270.497 80.185C289.503 134.085 308.998 187.985 327.863 241.885C329.543 246.365 323.243 250.093 320.163 246.75C303.993 229.81 288.592 212.363 272.685 195.423C270.113 193.113 266.385 194.653 264.723 197.085L99.435 391.265C97.51 393.312 95.8475 396.393 92.6275 396.777C90.3175 396.777 88.7775 394.975 87.5 393.19V390.215C148.068 286.02 208.565 181.79 268.975 77.49Z" fill="white"/>
<path d="M218.4 262.413C221.48 261.52 225.575 263.69 224.56 267.418C218.137 289.748 211.347 311.955 204.662 334.145C203.647 336.98 206.203 339.535 208.898 339.675C295.4 357 381.902 374.955 468.387 392.28C470.067 392.543 471.222 393.82 472.5 394.852V398.44L470.05 401.013H102.9C141.4 354.813 179.777 308.35 218.4 262.413Z" fill="white"/>
</svg>
